<?xml version="1.0" encoding="utf-8"?>
<!-- Generator: Adobe Illustrator 25.0.1, SVG Export Plug-In . SVG Version: 6.00 Build 0)  -->
<svg version="1.1" id="Capa_1" xmlns="http://www.w3.org/2000/svg" xmlns:xlink="http://www.w3.org/1999/xlink" x="0px" y="0px"
	 viewBox="0 0 347.4 181" style="enable-background:new 0 0 347.4 181;" xml:space="preserve">
<style type="text/css">
	.st0{fill:#00B2C0;}
	.st1{fill:#FFFFFF;}
</style>
<path class="st0" d="M108.6,78.1c-5.6,4.7-11.1,8.4-18.1,9.5c-5.7,0.8-11.3,0.4-16.5-2.2c-7.8-3.9-9.6-12.8-4-19.5
	c2.7-3.3,6.2-5.4,10.2-6.8c7.7-2.7,15.7-4.5,23.7-5.6c4.3-0.5,4.3-2.6,4.2-5.7c-0.1-10.8-8.8-16.3-18.8-11.8c-2.4,1.1-3.5,2.2-1.8,5
	c2.5,4.2,1.7,7.5-1.6,9.9c-3.6,2.6-9.6,2.1-12.6-1c-2.5-2.5-2.8-7-0.2-10.3c4.8-6.2,11.9-8.4,19.2-9.4c7-0.9,14.1-0.4,20.9,1.9
	c7,2.4,11.3,8.1,11.4,15.6c0.1,8.3,0,16.6,0,24.9c0,5.6,2.6,8,8.6,8.1c6.7,0.1,10.3-2.5,10.4-7.9c0.1-9,0.1-18,0-26.9
	c-0.1-5.5-1.4-6.9-7-7.6c-1.7-0.2-3.1-0.3-2.9-2.8c0.1-2.3,1.1-2.7,3-2.8c5.9-0.2,11.9-0.4,17.8-0.8c2.7-0.2,4.1,0.5,4.3,3.5
	c0.1,2.3,0.7,4.6,1.2,7.6c6.3-6.4,12.9-11.6,22.1-11.9c9.5-0.3,16.2,3.5,19.9,12.5c3.3-3.2,6.2-6.4,9.9-8.7
	c5.7-3.5,11.8-4.6,18.3-3.7c8.2,1.1,14.4,8.1,14.7,16.5c0.2,8.7,0.3,17.4,0.1,26.1c-0.1,3.5,1.4,5.3,4.6,6.4
	c7.9,2.6,12.9-0.8,12.9-9.1c0-8.4,0-16.9,0-25.3c0-5.5-1.2-7-6.6-7.5c-2.1-0.2-2.8-0.9-2.8-3c0-2.5,1.3-2.5,3.1-2.6
	c6.2-0.2,12.4-0.4,18.6-0.8c3.1-0.2,4.3,0.5,4.2,4c-0.2,13-0.1,26-0.1,39c0,5.2,0.7,6,6,6c2.1,0,3.2,0.3,3.2,2.8
	c0,2.8-1.5,2.7-3.4,2.7c-20.7,0-41.4,0-62.2,0c-1.9,0-3.5,0-3.5-2.7c0-2.7,1.4-2.7,3.4-2.8c5-0.2,6-1.3,6-6.3c0-7.5,0-14.9,0-22.4
	c0-6.3-2.4-10-7.4-11.6c-5.2-1.6-11.4,0.2-14.5,4.5c-1.9,2.6-3.5,5.5-3.6,8.7c-0.3,7.6-0.4,15.2-0.1,22.8c0.1,3.5,3.1,4.2,6.1,4.2
	c1.8,0,3.6-0.4,3.6,2.5c0,2.8-1.7,2.6-3.6,2.6c-9.8,0-19.6,0-29.4,0c-2,0-3.4-0.1-3.4-2.8c0.1-2.7,1.7-2.3,3.3-2.3
	c5.8-0.2,6.7-1.1,6.7-6.8c0-7.1,0-14.1,0-21.1c0-6.1-2.5-10.2-7.1-11.9c-4.9-1.8-11-0.1-14.6,4.2c-2.5,3-4.1,6.5-4,10.6
	c0.1,6.3,0,12.7,0,19.1c0,4.5,1.3,5.9,5.9,6.1c2,0.1,3.4,0.1,3.4,2.8c0,2.7-1.5,2.8-3.4,2.8c-6.6-0.1-13.3-0.1-19.9,0
	c-6.2,0.1-12.3,0.1-18.4,1.6C119.4,89.7,112.1,87.4,108.6,78.1z"/>
<path class="st0" d="M45.7,91.5c23.5,0,41,13.7,45.6,34.9c5.4,24.9-12.7,49.7-38,52.4c-16.5,1.8-30.8-2.4-41.7-15.1
	c-11-12.7-12.8-27.6-7.8-43.1c5-15.3,16.3-24.1,31.7-28.1C39.2,91.5,42.9,91.3,45.7,91.5z"/>
<path class="st0" d="M116.6,131.4c0,11.5,0.1,22.9-0.1,34.4c0,3.1,1.2,5,4.1,5.8c3.8,1,7.7,1,11.5,0c2.8-0.7,4.4-2.6,4.4-5.7
	c-0.1-9.8,0-19.6-0.1-29.4c0-4.4-2.2-6.6-6.6-6.7c-2.1-0.1-3.3-0.3-3.3-2.9c0-2.7,1.4-2.8,3.4-2.8c6.5-0.2,13-0.4,19.4-0.8
	c2.7-0.2,3.6,0.7,3.5,3.4c-0.1,13.1-0.1,26.2-0.1,39.4c0,5.3,0.6,6,5.9,6.1c2,0.1,3.5,0,3.4,2.8c0,2.7-1.6,2.8-3.5,2.8
	c-21.7,0-43.4,0-65.1,0.1c-2.2,0-2.9-0.7-2.9-2.9c0-2,0.8-2.5,2.7-2.7c6.2-0.4,6.7-1,6.7-7.2c0-17.1,0-34.2,0-51.4
	c0-6.8-1.3-8.3-8-8.7c-1.9-0.1-2.7-0.7-2.7-2.7c0-2.2,1.2-2.4,2.9-2.4c4.4-0.1,8.8-0.4,13.1-1.4c2.9-0.7,5.5-1.7,7.8-3.7
	c0.8-0.7,1.9-1.7,2.9-0.9c0.5,0.4,0.5,1.8,0.5,2.7C116.6,108.2,116.6,119.8,116.6,131.4z"/>
<path class="st0" d="M41.7,40c0-8.7,0-17.4,0-26.1c0-5.5-1-6.4-6.6-6.3c-1.5,0-3,0-4.6,0c-1.8,0.1-3.2,0-3.1-2.5
	c0-2.3,0.7-3.1,3.1-3.1c13.1,0.1,26.2,0.1,39.3,0c1.9,0,3.2,0.3,3.2,2.7c0,2.2-1,3-3,2.8c-0.4,0-0.8,0-1.2,0
	c-6.5,0.1-7.2,0.9-7.2,7.6c0,16,0,32,0,48c0,3.9-0.8,7.7-2.8,11.1c-4.1,7.2-10.7,11-18.6,12.5c-12.7,2.5-24.8,1.6-34.7-8.1
	c-7.2-7.1-7.3-17.8-0.4-24c5.6-5,14.2-4.8,19.1,0.5c2.9,3.1,3.7,7.5,1.9,11.1c-1.9,3.9-5.1,5.6-9.4,5.3c-2.1-0.1-5.2-1.8-6.1,1.4
	c-0.9,3.2,1.4,5.3,4.2,6.8c9.3,4.9,19.9,3.2,24.5-4.1c1.9-3,2.6-6.4,2.6-9.9C41.7,57.1,41.7,48.5,41.7,40z"/>
<path class="st0" d="M264.1,151.3c-5.9,0-11.9,0.1-17.8,0c-2.2,0-3.1,0.6-2.5,2.9c0.4,1.6,0.3,3.3,0.7,4.9
	c2.9,13.1,16.1,18.3,27.3,10.8c3.1-2.1,5.8-4.7,7.9-7.8c1.5-2.3,2.8-0.4,4.1,0.2c1.8,0.8,1,1.7,0.3,2.9c-11.4,19-45,18.8-56-0.3
	c-10.6-18.3,2.1-41.7,23.6-43.3c7.3-0.5,14.4,0.4,20.7,4.3c8.5,5.3,11.5,13.6,12.3,23.1c0.2,2.4-1.3,2.3-2.9,2.3
	C276,151.3,270,151.3,264.1,151.3z"/>
<path class="st0" d="M326.5,60.6c-5.8,0-11.6,0.1-17.4,0c-2.4-0.1-3.2,0.8-2.9,3.1c0.8,7.5,2.8,14.4,10.5,17.4
	c7.5,3,14.4,1.2,20.3-4.2c1.6-1.5,3.4-3,4.5-4.8c1.5-2.4,2.8-1.8,4.7-0.6c2.6,1.7,0.4,2.9-0.4,3.9c-5.8,8-13.6,12.3-23.5,12.8
	c-9.8,0.5-19.1-0.9-26.6-7.8c-8-7.4-10.6-16.7-8-27.1c2.9-11.7,10.8-18.7,22.3-21.5c12.9-3.2,26.4,1.4,32.4,11
	c2.9,4.5,4.2,9.5,4.5,14.9c0.1,2.4-0.7,3.1-3,3.1C338.1,60.5,332.3,60.6,326.5,60.6z"/>
<path class="st0" d="M309.8,137.3c3.9-6.9,8.2-12.7,16.3-14.5c4.4-1,8.5-0.4,12.2,2.2c3.8,2.6,5,7.4,2.9,11.4
	c-1.9,3.8-6.1,5.6-9.7,4.2c-3.9-1.5-5.4-5.1-4-9.6c0.3-1.1,1.6-2.3,0.4-3.4c-1.4-1.1-3-0.4-4.2,0.4c-3.5,2.4-5.8,5.9-7.5,9.7
	c-4.5,9.9-4.2,20.4-3.9,30.9c0.1,2.3,1.7,3.4,3.9,3.5c2.1,0.1,4.1,0,6.2-0.1c1.9-0.1,3.2,0.1,3.1,2.6c0,2.1-0.8,2.9-2.9,2.9
	c-11.7-0.1-23.5-0.1-35.2,0c-2.1,0-2.5-1-2.5-2.8c0-1.9,0.5-2.9,2.6-2.7c1.1,0.1,2.2,0.1,3.3,0c3.1-0.2,4.8-1.7,4.8-5
	c0-10.1,0.1-20.2,0-30.2c-0.1-5-2.3-7.1-7.5-7.3c-2.1-0.1-3.4-0.2-3.3-2.9c0-2.4,1.2-2.6,3.1-2.7c6.2-0.2,12.4-0.4,18.6-0.9
	c2.9-0.2,3.5,0.9,3.4,3.5C309.6,130.1,309.8,133.7,309.8,137.3z"/>
<path class="st0" d="M199.2,160c4.4-8.1,8.6-15.4,12.5-22.8c2.5-4.7,1.2-7.1-4-8.4c-1.6-0.4-3.4-0.3-3.3-2.8
	c0.1-1.8,0.3-2.9,2.5-2.8c6.8,0.1,13.5,0,20.3,0c1.2,0,2.3,0.1,2.2,1.7c-0.1,1.4,0.6,3.4-1.6,3.7c-4.6,0.7-6.5,4.1-8.4,7.7
	c-6.9,12.8-13.8,25.4-20.8,38.1c-0.9,1.6-1.4,3.5-4,3.4c-2.6,0-3.2-1.8-4.1-3.4c-8.2-13.6-16.3-27.2-24.5-40.8
	c-1.6-2.7-3.4-5.1-6.8-5.4c-2.1-0.2-1.8-1.5-1.9-2.9c0-2,1-2.2,2.6-2.2c9.8,0,19.6,0.1,29.4,0c1.9,0,2.8,0.5,2.8,2.6
	c0,2.1-1,2.4-2.8,2.5c-6.6,0.6-7.5,2.4-4.1,8.1C189.7,144,194.3,151.7,199.2,160z"/>
<path class="st0" d="M133.2,108.4c0-5.2,4.6-9.4,10.1-9.3c5.7,0.1,10.4,4.7,10.2,9.8c-0.2,4.6-5.2,9-10.3,8.9
	C137.7,117.8,133.2,113.5,133.2,108.4z"/>
<path class="st0" d="M279.8,17.4c0,5.3-4.2,9.3-9.9,9.3c-5.6,0-10-4-10.1-9.2c-0.1-5.2,4.5-9.4,10-9.3
	C275.5,8.2,279.8,12.1,279.8,17.4z"/>
<path class="st1" d="M108.1,63.8c-0.3,10.2-5.1,16-13.7,16.1c-7.1,0.1-10.5-4.6-8.2-11.4c1.1-3.4,3.5-5.5,6.6-7
	c3-1.4,6.2-2.2,9.5-2.8C107.8,57.9,108.4,56.4,108.1,63.8z"/>
<path class="st1" d="M70.4,134.7c0.1,6.8-0.3,13.5-1.9,20.1c-5.2,21.7-26.4,22.4-36.3,13.2c-4.7-4.3-6.9-9.9-7.8-16
	c-1.9-12.4-2.4-24.7,1.1-36.9C29,102.7,37.1,96,47.6,96.7c12.2,0.8,19.9,8.7,21.8,21.9C70.2,123.9,70.2,129.3,70.4,134.7z"/>
<path class="st1" d="M254.8,146.2c-1.8,0-3.6,0-5.4,0c-5.8,0-6.1-0.2-5.1-6.1c0.3-1.9,0.8-3.8,1.5-5.6c2.1-5.6,6.2-8.4,11.6-8.1
	c5.1,0.3,9.6,4,10.5,9.5c1.5,8.7-0.3,10.8-7.8,10.3C258.4,146.1,256.6,146.2,254.8,146.2z"/>
<path class="st1" d="M316.6,55.6c-2.2,0-4.4-0.2-6.6,0c-3.2,0.3-4.3-0.8-3.7-4c0.7-3.5,1.1-7.1,3-10.2c2.2-3.8,5.4-5.8,9.8-5.7
	c4.5,0.2,7.9,2.3,10,6.3c1.2,2.3,1.6,4.7,1.7,7.2c0.2,4.2-1.6,6.1-5.9,6.3C322.1,55.7,319.4,55.6,316.6,55.6z"/>
</svg>
