<?xml version="1.0" encoding="utf-8"?>
<!-- Generator: Adobe Illustrator 25.0.1, SVG Export Plug-In . SVG Version: 6.00 Build 0)  -->
<svg version="1.1" id="Capa_1" xmlns="http://www.w3.org/2000/svg" xmlns:xlink="http://www.w3.org/1999/xlink" x="0px" y="0px"
	 viewBox="0 0 717.4 87.7" style="enable-background:new 0 0 717.4 87.7;" xml:space="preserve">
<path d="M489.4,39.9c0,11.5,0.1,22.9,0,34.4c0,3.1,1.2,5,4.1,5.8c3.8,1,7.7,1,11.5,0c2.8-0.7,4.4-2.6,4.4-5.7
	c-0.1-9.8,0-19.6,0-29.4c0-4.4-2.2-6.6-6.6-6.7c-2.1-0.1-3.3-0.3-3.3-2.9c0-2.7,1.4-2.8,3.4-2.8c6.5-0.2,13-0.4,19.4-0.8
	c2.7-0.2,3.5,0.7,3.5,3.4c-0.1,13.1-0.1,26.2,0,39.4c0,5.3,0.6,6,5.9,6.1c2,0.1,3.5,0,3.4,2.8c0,2.7-1.6,2.8-3.5,2.8
	c-21.7,0-43.4,0-65.1,0.1c-2.2,0-2.9-0.7-2.9-2.9c0-2,0.8-2.5,2.7-2.7c6.2-0.4,6.7-1,6.7-7.2c0-17.1,0-34.2,0-51.4
	c0-6.8-1.3-8.3-8-8.7c-2-0.1-2.6-0.7-2.7-2.6c0-2.2,1.2-2.4,2.9-2.4C469.6,8.3,474,8,478.3,7c2.9-0.7,5.5-1.7,7.8-3.7
	c0.8-0.7,1.9-1.6,2.9-0.9c0.5,0.4,0.5,1.8,0.5,2.7C489.4,16.7,489.4,28.3,489.4,39.9z"/>
<path d="M41.7,40c0-8.7,0-17.4,0-26.1c0-5.5-1-6.4-6.6-6.3c-1.5,0-3,0-4.6,0c-1.8,0.1-3.2,0-3.1-2.5c0-2.3,0.7-3.1,3.1-3.1
	c13.1,0.1,26.2,0.1,39.3,0c1.9,0,3.2,0.3,3.2,2.7c0,2.2-1,3-3,2.8c-0.4,0-0.8,0-1.2,0c-6.5,0.1-7.2,0.9-7.2,7.6c0,16,0,32,0,48
	c0,3.9-0.8,7.7-2.8,11.1c-4.1,7.2-10.7,11-18.6,12.5c-12.7,2.5-24.8,1.6-34.7-8.1c-7.2-7.1-7.3-17.8-0.4-24c5.6-5,14.2-4.8,19.1,0.5
	c2.9,3.1,3.7,7.5,1.9,11.1c-1.9,3.9-5.1,5.6-9.4,5.3c-2.1-0.1-5.2-1.8-6.1,1.4c-0.9,3.2,1.4,5.3,4.2,6.8c9.3,4.9,19.9,3.2,24.5-4.1
	c1.9-3,2.6-6.4,2.6-9.9C41.7,57.1,41.7,48.5,41.7,40z"/>
<path d="M682.6,45.8c3.9-6.9,8.2-12.7,16.3-14.5c4.4-1,8.5-0.4,12.2,2.2c3.8,2.6,5,7.3,2.9,11.4c-1.9,3.8-6.1,5.6-9.7,4.2
	c-3.9-1.5-5.4-5.1-4-9.5c0.3-1.1,1.7-2.3,0.4-3.4c-1.3-1.1-3-0.4-4.2,0.4c-3.5,2.4-5.8,5.8-7.5,9.7c-4.5,9.9-4.2,20.4-3.9,30.9
	c0.1,2.3,1.7,3.4,3.9,3.5c2.1,0.1,4.1,0,6.2-0.1c1.8-0.1,3.2,0.1,3.2,2.6c0,2.1-0.8,2.9-2.9,2.9c-11.7-0.1-23.5-0.1-35.2,0
	c-2.1,0-2.5-1-2.5-2.8c0-1.9,0.5-2.9,2.6-2.7c1.1,0.1,2.2,0.1,3.3,0c3.1-0.2,4.8-1.7,4.8-5c0-10.1,0.1-20.2,0-30.2
	c-0.1-5-2.3-7.1-7.5-7.3c-2.1-0.1-3.4-0.2-3.3-2.9c0-2.4,1.2-2.6,3.1-2.7c6.2-0.2,12.4-0.4,18.6-0.9c2.9-0.2,3.5,0.9,3.4,3.5
	C682.4,38.7,682.6,42.3,682.6,45.8z"/>
<path d="M572,68.6c4.4-8.1,8.6-15.4,12.5-22.8c2.5-4.7,1.2-7.1-4-8.4c-1.6-0.4-3.4-0.3-3.3-2.8c0-1.8,0.3-2.9,2.5-2.8
	c6.8,0.1,13.5,0,20.3,0c1.2,0,2.3,0.1,2.2,1.7c-0.1,1.4,0.6,3.4-1.6,3.7c-4.7,0.7-6.5,4.1-8.4,7.7c-6.9,12.8-13.8,25.4-20.8,38.2
	c-0.9,1.6-1.4,3.5-4,3.4c-2.6,0-3.2-1.8-4.1-3.4c-8.2-13.6-16.3-27.2-24.5-40.8c-1.6-2.7-3.4-5.1-6.8-5.4c-2.1-0.2-1.8-1.5-1.9-2.9
	c0-2,1-2.2,2.6-2.2c9.8,0,19.6,0,29.4,0c1.9,0,2.8,0.5,2.8,2.6c0,2.1-1,2.4-2.8,2.5c-6.6,0.6-7.5,2.3-4.1,8.1
	C562.5,52.6,567.1,60.3,572,68.6z"/>
<path d="M506,17c0-5.2,4.6-9.4,10.2-9.3c5.7,0.1,10.4,4.7,10.2,9.9c-0.2,4.6-5.2,9-10.3,8.9C510.5,26.3,506,22.1,506,17z"/>
<path d="M279.8,17.4c0,5.3-4.2,9.3-9.9,9.3c-5.6,0-10-4-10.1-9.2c-0.1-5.2,4.5-9.4,10-9.3C275.5,8.2,279.8,12.1,279.8,17.4z"/>
<path d="M284.8,80.6c-5.3,0-6-0.8-6-6c0-13-0.1-26,0.1-39c0.1-3.5-1.2-4.2-4.2-3.9c-6.2,0.4-12.4,0.6-18.6,0.8
	c-1.9,0.1-3.2,0.1-3.2,2.6c0,2.1,0.7,2.8,2.8,3c5.3,0.5,6.5,2,6.5,7.5c0,8.4,0,16.9,0,25.3c0,8.3-4.9,11.7-12.9,9.1
	c-3.2-1.1-4.6-2.9-4.6-6.4c0.2-8.7,0.1-17.4-0.1-26.1c-0.2-8.5-6.5-15.4-14.7-16.5c-6.5-0.9-12.6,0.2-18.3,3.7
	c-3.7,2.3-6.6,5.4-9.9,8.7c-3.7-9.1-10.5-12.9-19.9-12.5c-9.2,0.3-15.7,5.6-22.1,11.9c-0.5-3.1-1.1-5.3-1.2-7.6
	c-0.1-3-1.6-3.7-4.3-3.5c-5.9,0.4-11.9,0.7-17.8,0.8c-2,0.1-2.9,0.5-3,2.8c-0.1,2.5,1.2,2.6,2.9,2.8c5.6,0.8,6.9,2.1,7,7.6
	c0.1,9,0.1,18,0,26.9c-0.1,5.4-3.7,8-10.4,7.9c-6-0.1-8.6-2.5-8.6-8.1c0-8.3,0-16.6,0-24.9c0-7.4-4.4-13.2-11.4-15.6
	c-6.8-2.3-13.9-2.8-20.9-1.9c-7.3,1-14.4,3.1-19.2,9.3c-2.5,3.2-2.2,7.7,0.2,10.3c3,3.1,9.1,3.6,12.6,1c3.3-2.3,4-5.7,1.5-9.9
	c-1.7-2.8-0.6-3.9,1.8-5c10-4.5,18.7,1,18.8,11.8c0,3.1,0,5.2-4.2,5.7c-8,1-16,2.9-23.7,5.6c-4,1.4-7.5,3.6-10.2,6.8
	c-5.6,6.7-3.8,15.6,4,19.5c5.2,2.6,10.8,3.1,16.5,2.2c7-1,12.5-4.8,18.1-9.5c3.5,9.3,10.9,11.6,19.2,9.6c6.2-1.5,12.3-1.5,18.5-1.5
	c6.6-0.1,13.3,0,19.9,0c2,0,3.4,0,3.4-2.8c0-2.7-1.5-2.7-3.4-2.8c-4.6-0.2-5.9-1.6-5.9-6.1c0-6.3,0.1-12.7,0-19.1
	c-0.1-4.1,1.5-7.5,4-10.6c3.6-4.3,9.7-6,14.6-4.2c4.6,1.7,7.1,5.8,7.1,11.9c0,7,0,14.1,0,21.1c0,5.7-0.9,6.6-6.7,6.8
	c-1.6,0-3.2-0.3-3.3,2.3c0,2.7,1.4,2.8,3.4,2.8c9.8,0,19.6,0,29.4,0c1.9,0,3.6,0.2,3.6-2.6c0-3-1.9-2.5-3.6-2.5
	c-3,0-5.9-0.7-6.1-4.2c-0.2-7.6-0.2-15.2,0.1-22.8c0.1-3.2,1.8-6.1,3.7-8.7c3.1-4.3,9.3-6.1,14.5-4.5c5,1.6,7.4,5.2,7.4,11.6
	c0,7.5,0,14.9,0,22.4c0,5-1,6.1-6,6.3c-2,0.1-3.4,0.1-3.4,2.8c0,2.7,1.5,2.7,3.5,2.7c20.7,0,41.5,0,62.2,0c2,0,3.4,0,3.4-2.7
	C288,80.9,287,80.6,284.8,80.6z M108,63.9c-0.3,10.2-5.1,16-13.7,16.1c-7.1,0.1-10.5-4.6-8.2-11.4c1.1-3.4,3.5-5.5,6.6-7
	c3-1.4,6.2-2.2,9.5-2.8C107.8,57.9,108.4,56.4,108,63.9z"/>
<path d="M464.1,34.9C459.5,13.7,442,0.1,418.5,0c-2.8-0.1-6.5,0-10.2,1c-15.3,4-26.7,12.7-31.7,28.1c-5,15.6-3.2,30.4,7.8,43.1
	c11,12.7,25.2,16.9,41.7,15.1C451.4,84.6,469.5,59.8,464.1,34.9z M441.3,63.3C436.1,85,414.9,85.7,405,76.5c-4.7-4.3-6.9-9.9-7.8-16
	c-1.9-12.3-2.4-24.7,1.1-36.9c3.5-12.5,11.6-19.1,22.2-18.4c12.2,0.8,19.9,8.7,21.8,21.9c0.8,5.3,0.8,10.7,1,16.1
	C443.3,50,442.9,56.7,441.3,63.3z"/>
<path d="M656.7,70.8c-1.3-0.6-2.6-2.5-4.1-0.2c-2.1,3.1-4.8,5.7-7.9,7.8c-11.2,7.5-24.4,2.3-27.3-10.8c-0.4-1.6-0.2-3.3-0.7-4.9
	c-0.6-2.3,0.3-2.9,2.5-2.9c5.9,0.1,11.9,0,17.8,0c5.9,0,11.9,0,17.8,0c1.6,0,3.1,0.1,2.9-2.3c-0.8-9.5-3.8-17.8-12.3-23.1
	c-6.3-3.9-13.4-4.9-20.7-4.3c-21.5,1.6-34.2,24.9-23.6,43.3c11,19.2,44.6,19.3,56,0.3C657.7,72.6,658.5,71.6,656.7,70.8z
	 M617.2,48.7c0.3-1.9,0.8-3.8,1.5-5.6c2.1-5.6,6.2-8.4,11.6-8.1c5.1,0.3,9.6,4,10.5,9.5c1.5,8.7-0.3,10.8-7.8,10.3
	c-1.8-0.1-3.6,0-5.4,0c-1.8,0-3.6,0-5.4,0C616.4,54.7,616.2,54.5,617.2,48.7z"/>
<path d="M346.1,71.5c-1.8-1.2-3.2-1.8-4.7,0.6c-1.2,1.8-2.9,3.3-4.5,4.8c-5.9,5.4-12.8,7.2-20.3,4.2c-7.7-3.1-9.7-9.9-10.5-17.4
	c-0.2-2.4,0.5-3.2,2.9-3.1c5.8,0.1,11.6,0,17.4,0c5.8,0,11.6-0.1,17.4,0c2.3,0,3.1-0.6,3-3.1c-0.3-5.3-1.6-10.4-4.5-14.9
	c-6-9.5-19.5-14.2-32.4-11c-11.5,2.8-19.5,9.8-22.3,21.5c-2.5,10.4,0,19.7,8,27.1c7.6,7,16.8,8.3,26.6,7.9
	c9.9-0.5,17.7-4.8,23.5-12.8C346.6,74.3,348.7,73.1,346.1,71.5z M306.3,51.7c0.7-3.5,1.1-7.1,3-10.2c2.2-3.8,5.4-5.8,9.8-5.7
	c4.5,0.2,7.8,2.3,10,6.3c1.2,2.3,1.6,4.7,1.7,7.2c0.2,4.2-1.6,6.1-5.9,6.3c-2.8,0.1-5.5,0-8.3,0c-2.2,0-4.4-0.2-6.6,0
	C306.8,56,305.7,54.8,306.3,51.7z"/>
</svg>
